<?xml version="1.0" encoding="UTF-8" standalone="no"?>
<svg xmlns:rdf="http://www.w3.org/1999/02/22-rdf-syntax-ns#" xmlns="http://www.w3.org/2000/svg" height="500" width="500" version="1.1" xmlns:cc="http://creativecommons.org/ns#" xmlns:dc="http://purl.org/dc/elements/1.1/" viewBox="0 0 500.00 500.00"><g style=""><path fill="#f0ead0" d="m91 498.57c0-1.57 3.42-3.05 4.91-2.13 0.51017 0.32 1.1744-0.67 1.48-2.19 1.95-9.7907 2.79-16.713 3.11-25.62 0.20187-5.58 0.59-10.814 0.86172-11.64s1.21-6.68 2.08-13c1.96-14.15 5.02-27.321 6.4744-27.81 0.6-0.2 1.08-1.84 1.08-3.64 0-4.82 5.69-15.103 12.23-22.12 8.2232-8.8217 13.72-11.05 31.9-12.92 7.91-0.81445 16.712-1.774 19.57-2.1324 4.7707-0.6 5.6306-0.37 10.5 2.79 32.79 21.274 84.26 21.201 99.123-0.14034l2.82-4.05-7.82 3.6449c-25.95 12.09-40.98 12.89-72.45 3.8303-14.663-4.2205-16.21-4.97-14.981-7.2544 0.50271-0.94 1.2412-3.8902 1.6412-6.56 0.72-4.7945 0.7624-4.8422 3.85-4.22 28.48 5.79 43.421-0.623 16.122-6.92-29.16-6.7215-54.23-21.43-65.25-38.281-2.06-3.16-4.2823-6.3005-4.93-6.99-1.72-1.8203-6.6608-15.11-10.33-27.752-1.7538-6.05-3.5303-11.45-3.95-12-2.7009-3.56-7.4818-37.3-6.55-46.22 0.61-5.8226 0.88253-6.354 4.3245-8.41 6.4-3.8203 40.464-25.85 45.65-29.514 8.09-5.7233 6.48-1.98-2.94 6.834-7.6246 7.1337-8.49 8.2811-7.1914 9.58s2.4109 0.95 9.3141-2.88c4.3136-2.3923 10.61-5.05 13.99-5.9134 6.8733-1.75 11.84-5.1412 32.01-21.87l12.53-10.39 3.32 1.5828c2.1311 1.02 4.91 4.02 7.76 8.39 2.4402 3.7438 6.03 8.48 7.99 10.522 1.9517 2.04 4.381 4.75 5.4 6.01 3.3221 4.112 6.954 5.8806 9.8305 4.79 2.5-0.95 4.7649-4.6937 3.82-6.3012-0.26-0.44 0.01-1.3714 0.6-2.08 0.79487-0.96 0.19-2.2445-2.4028-5.07-1.91-2.08-3.24-4.16-2.9605-4.61 0.7718-1.25 13.944 4.9116 18.21 8.52 5.09 4.3 18.313 13.36 26.26 17.98 3.5735 2.08 7.9826 5.09 9.8 6.68 1.82 1.5939 6.38 4.45 10.14 6.342l6.84 3.444 0.7218 12.01c0.86 14.24-0.27 33.41-2.87 48.83-0.25431 1.5107-0.71 4.55-1.00 6.75-3.71 27.344-15.67 43.741-44.13 60.5-17.39 10.24-19.31 11.961-15.552 13.97 1.8803 1.01 4.1222 0.7512 10.47-1.1909 0.50093-0.15332 1.48 1.3 2.1739 3.2212 0.69473 1.93 1.3 2.97 1.34 2.3217 0.4-6 10.67-17.34 15.7-17.34 6.8123 0 7.153 12.912 0.39 14.713-0.83 0.22-2.5105 1.83-3.75 3.5729l-2.25 3.1737 2.25 0.85493c1.24 0.47022 9.45 2.4029 18.25 4.2949 35.97 7.7329 47.423 14.04 50.19 27.641 0.31 1.5125 0.88 2.75 1.27 2.75 0.39 0 0.74147 0.5625 0.78197 1.25s1.28 4.63 2.7543 8.75c5.03 14.07 7.4506 28.744 10.13 61.39 2.17 26.41 5.28 23.722-27.09 23.38l-25.03-0.28-1.5-15.02c-1.364-13.66-1.67-14.99-3.35-14.66-1.7111 0.34-1.79 1.04-1.02 9.5201 0.46 5.04 0.84 11.633 0.85 14.66l0.02 5.5-116.75 0.25415c-100.95 0.22-116.75 0.06-116.75-1.18zm55.711-21.76c-1.36-0.85-2.59 4.86-2.53 11.69 0.03 3.4727 0.28 3.02 1.89-3.47 1.4201-5.73 1.57-7.641 0.64007-8.2207zm2.76-11.06c0.84357-3.7225 2.52-15.143 2.4547-16.75-0.05-1.3234-4.782 16.35-4.89 18.25-0.1 1.81 1.9705 0.53185 2.4309-1.5zm175.15-5.2c0.63494-1.6546-2.1335-21.54-3.63-26.05l-0.99263-3 0.47174 3.23c0.26 1.78 0.78 8.64 1.1512 15.25 0.623 11.02 1.56 14.33 3 10.58zm-36.62-88.99c0-0.24254-0.45-0.72-1-1.06-0.55-0.34-1-0.14148-1 0.44098s0.45 1.06 1 1.06 1-0.2 1-0.44098zm-41.5-49.8c17.05-6.1733 24.281-23.09 21.03-49.21-1.3206-10.62-1.32-12.131 0.02-13.61 5.9201-6.5416-57.584-10.52-71.76-4.4913-8.382 3.5636-11.704 26.94-5.8336 41.04 10.401 24.992 32.151 35.1 56.542 26.264zm-26.68-6.09c-12.63-3.5735-20.48-14.57-22.644-31.694-2.5827-20.433-2.6108-23.703-0.21032-24.47 2.3011-0.73035 55.85 0.24147 59.89 1.09l2.3544 0.49295-0.6741 16.71c-1.00 24.88-3.26 30.36-14.953 36.4-4.9824 2.5714-17.213 3.333-23.761 1.48zm-64.19-81.23c2.5407-3.88-1.2402-7.7318-5.33-5.43-3.52 1.9835-3.86 3.45-1.3716 5.9308 2.7444 2.7444 4.6639 2.6004 6.7-0.50227zm134.42-3.44c2.1936 0 3.1326-4.1446 1.38-6.08-3.7016-4.09-10.03-0.02-7.05 4.5325 1.1125 1.7 2.34 2.4919 3.2814 2.13 0.83-0.32 1.9-0.58 2.39-0.58zm-109.01 137.27c-0.80431-0.32-4.63-2.84-8.5-5.6015-3.87-2.77-11.76-8.2-17.54-12.07-29.854-20.00-46.482-49.28-40.67-71.594 2.4428-9.3807 5.54-5.48 11.49 14.491 7.7924 26.153 12.9 32.75 39.144 50.58 17.54 11.911 24.89 20.37 20.5 23.581-1.9825 1.45-2.21 1.4808-4.42 0.61133zm131.21-14.37c-4.7401-1.7648 4.5106-21.932 17.93-39.08 4.43-5.6604 5.7829-13.1 10.8-59.292 0.6-5.4833 1.7445-10.98 2.5536-12.22 0.84-1.28 1.4711-4.58 1.4711-7.66 0-14.63 6.63-16.95 11.47-4.01 1 2.67 2.19 5.33 2.64 5.91 1.1 1.4123 3.9 17.693 3.9 22.662 0 2.8413 0.89 5.1902 3.15 8.34 3.06 4.2621 2.94 7.4439-0.29247 7.4439-1.6402 0-9.4705-7.8705-11.41-11.47-2.78-5.16-5.45-4.77-5.45 0.81 0 2.39-0.5 8.02-1.1014 12.53-0.86 6.3646-0.83 8.52 0.14 9.68 1.31 1.5736 1.01 8.75-1.19 29.102-1.3943 12.893-3.07 14.743-13.07 14.42-3.08-0.10017-3.373 0.28-10.46 13.34-4.97 9.16-7.09 10.984-11.08 9.5012zm-221.58-128.57c-2-1.99-0.48-7.26 3.333-11.59 2.92-3.32 4-5.43 4-7.8038 0-2.9 6.471-15.383 12.921-24.933 2.3938-3.5445 6.2804-12.132 5.74-12.68-0.25092-0.25093-3.75 0.94467-7.7719 2.66-10.32 4.39-15.26 4.02-15.692-1.17-0.25-3.00 0.12-3.91 2-4.8942 1.27-0.67 5.2-3.51 8.74-6.32s7.44-5.7808 8.67-6.61 8.4629-6.19 16.07-11.92c23.04-17.35 24.214-18.142 31.06-20.91 9.08-3.6722 8.9744-4.79-0.4632-4.7243l-7.77 0.05-0.32-3.32c-0.51253-5.34 8.69-11.423 21.423-14.17 2.6923-0.58 5.8-1.5 6.9-2.04 1.1-0.54273 7.85-2.5714 15-4.51s15.361-4.71 18.25-6.16c4.9005-2.4624 6.19-2.642 19.5-2.7245l14.26-0.08 7.5 3.64c4.13 2.00 12.9 5.74 19.5 8.3016 15.23 5.92 23.07 10.59 37.824 22.51 6.5034 5.2549 13.741 10.904 16.08 12.554 14.914 10.51 20.13 17.2 15.593 20-2.9314 1.8117 5.62 22.56 15.451 37.5 2.9 4.4013 3.5629 6.3 3.3344 9.5l-0.29 4-4.8427 0.00c-4.2642 0.00-5.01 0.3312-6.2819 2.75-1.2 2.29-2.1 2.75-5.3722 2.75-2.91 0-4.2114 0.52046-5.00 2-3.5 6.54-31-5.09-31-13.104 0-2.1426-0.45084-3.9-1.00-3.9-1.6323 0-21.18-9.5834-25.293-12.402-2.08-1.43-4.34-2.6-5.01-2.6-0.67349 0-4.4812-1.37-8.4617-3.04-7.4501-3.1302-9.78-3.4614-16.83-2.4-4.38 0.66-18.4-7.86-18.4-11.18 0-1.9744-0.65279-1.7504-4.9402 1.7-7.6346 6.14-15.67-0.16-9.38-7.3422 2.34-2.67 2.16-2.5642-16.87 9.9527-8.63 5.6745-16.5 10.332-17.5 10.35-1 0.02-2.6917 0.6925-3.76 1.5-2.54 1.92-8.45 1.9219-9.1827 0.01-0.45-1.1642-1.41-0.85234-4.72 1.5307-2.29 1.65-8.21 5.8747-13.16 9.4-4.95 3.5224-11.7 8.44-15 10.92-14.02 10.544-33.424 24.53-38.72 27.89-2.6838 1.71-8.83 2.3505-10.12 1.06z"/><path fill="#a7abb5" d="m91 499.11c0-1.5419 2.71-3.1549 4.2829-2.5507 0.96455 0.37013 1.73-0.09 2.05-1.2328 2.1208-7.4943 4.7505-33.29 3.6114-35.42-0.47387-0.89-0.47-2 0.02-2.5 0.48-0.5 1.831-6.7532 3.01-13.903 2.7209-16.53 4.9324-26.321 6.11-27.05 0.51-0.31352 0.92235-1.85 0.92235-3.41 0-13.71 18.73-31.804 35.25-34.06 31.71-4.331 33.651-4.35 39.63-0.29126 20.1 13.63 56.23 19.87 76.86 13.27 15.433-4.9349 27.891-16.79 24.07-22.901-3.51-5.6138 9.8725-22.362 16.53-20.692 5.74 1.44 4.4045 7.7411-3.3248 15.72-5.8248 6.01-5.92 5.86 4.9907 8.24 54.35 11.843 57.76 13.99 65.53 41.18 0.94274 3.3 2.08 6.4628 2.5318 7.03 0.78 0.98 4.9201 22.601 5.5511 28.972 0.16343 1.65 0.74 7.05 1.28 12 4.66 42.764 7.4228 38.5-24.96 38.5h-24.76l-0.56088-3.75c-0.31-2.06-1.09-9.05-1.75-15.52-1.1712-11.623-2.1841-13.531-5.5-10.36-0.07 0.07 0.52 5.73 1.31 12.58 0.79132 6.85 1.18 13.49 0.86139 14.754l-0.58 2.3004-116.48-0.02c-64.42-0.03-116.48-0.43-116.48-0.9zm55.06-12.113c1.64-7.5 1.7813-9.48 0.74-10.13-1.5118-0.94163-2.4102 2.83-3.2227 13.53-0.6814 8.9709-0.02 8.06 2.4829-3.4zm5.9205-33.323c2.27-15.44 1.8041-20.234-0.6-6.1702-0.28177 1.65-1.18 5.48-1.99 8.5-0.81108 3.03-1.7042 6.5935-1.9847 7.93-0.28053 1.34-0.71437 2.7605-0.96409 3.1646-0.6 0.9643 1.85 1.85 2.7834 1.01 0.4-0.36 1.64-6.8509 2.75-14.43zm173.34 7.57c1.1623-2-4.4807-33.66-5.723-32.11-0.16 0.2 0.32017 6.21 1.06 13.36 0.74156 7.15 1.1018 14.462 0.80043 16.25-0.52297 3.1023 2.41 5 3.8608 2.5zm-147.82-95.63c-1.65-1.3-8.85-6.3116-16-11.14-34.71-23.434-48.63-43.77-47.3-69.09 0.89431-17.04 4.6307-14.16 11.32 8.7247 7.03 24.07 13.63 32.94 35.611 47.87 19.98 13.57 27.661 21.16 24.85 24.55-1.78 2.14-5.05 1.79-8.48-0.91231zm133.7-12.82c-2.4833-2.4833 7.26-21.77 18.313-36.25 5.8241-7.63 5.66-6.8906 9.97-44.55 1.42-12.38 3.28-24.7 4.1334-27.38 0.86-2.6833 1.81-8.1719 2.1121-12.2 0.59187-7.83 1.51-9.05 5.6115-7.49 1.5126 0.58 2.9521 2.57 4.1318 5.722 1 2.6617 2.23 5.37 2.733 6.02 1.29 1.6449 4.7907 21.621 4.2 23.93-0.28 1.08 0.81252 3.94 2.56 6.68 7.4804 11.76-0.95387 10.5-9-1.3431-2.22-3.27-4.6547-5.9416-5.4123-5.9416-2.23 0-3.32 14.86-2.41 32.75 0.2 3.9029-1.23 20.711-2.61 30.75-0.15141 1.1-0.33271 2.72-0.40291 3.5903-0.12 1.4836-8.974 4.4407-11.63 3.883-2.55-0.54-3.6031 0.53392-7.66 7.78-2.39 4.2625-4.7 8.6408-5.143 9.73-2.02 4.96-6.7219 7.1-9.5003 4.3206zm-91.144-37.331c-8.6922-2.44-17.44-10.64-20.45-19.16-2.01-5.7-5.01-34.311-3.7314-35.59 2.54-2.54 60.51-1.22 62.284 1.42 0.51 0.75 0.72304 4.74 0.48314 8.8626-0.24 4.13-0.6513 12-0.91424 17.5-1.06 22.27-16.09 33.03-37.68 26.97zm-128.49-91.04c-2.7125-2.7125-0.12125-9.9936 4.4219-12.43 1.1839-0.63359 2.04-2.6423 2.48-5.78 0.47018-3.42 2.52-7.8309 7.08-15.27 6.1938-10.1 12.86-22.89 12.244-23.5-0.16394-0.16394-3.39 1.02-7.16 2.63-11.743 5.01-17.63 4.67-17.63-1 0-1.5 10.38-10.46 18.64-16.09 1.2106-0.83 8.43-6.19 16.03-11.92 22.98-17.31 24.482-18.333 29.75-20.34 7.7038-2.93 10.69-4.92 9.51-6.34-0.74-0.89-1.88-0.93162-4.35-0.17407-7.2523 2.23-12.76-0.94102-11.04-6.35 0.79135-2.4933 11.614-7.7806 22.03-10.763 3.8139-1.09 13.46-3.83 21.434-6.08s15.694-4.97 17.153-6.03c6.95-5.06 31.194-4.7835 41.942 0.47401 2.973 1.4543 11.64 5.09 19.26 8.08 16.813 6.6 22.674 10.05 37.973 22.394 6.5034 5.25 13.75 10.89 16.1 12.54 15.193 10.673 17.92 14.12 15.3 19.363-0.8246 1.653-1.24 4.21-0.93243 5.8 0.66101 3.46 15.16 32.341 16.231 32.341 0.88385 0 3.9831 7.3521 3.9831 9.45 0 2.8313-3.1241 4.7505-6.6546 4.09-2.902-0.54442-3.5-0.29484-4.49 1.88-0.88 1.93-2.1614 2.66-5.58 3.1709-2.4405 0.37-4.664 1.26-4.9412 1.98-1.06 2.7547-5.8546 2.563-14.41-0.58-13.68-5.02-19.47-10.222-16.01-14.39 0.90444-1.09 0.6-1.51-1.4808-2.03-3.11-0.78037-20.45-8.96-25.434-12-7.5705-4.6126-20.33-9.07-25-8.74-10.12 0.72286-10.44 0.65-16.55-3.9015-5.9117-4.4-7.102-5.54-7.7615-7.4227-0.19-0.54104-1.7608 0.21-3.4923 1.67-7.9823 6.72-15.18 3.05-10.732-5.4645 0.9723-1.864 1.05-2.55 0.24384-2.07-0.66428 0.39392-7.9533 5.1523-16.2 10.574-8.2445 5.4218-16.12 10.13-17.5 10.46-1.3805 0.33-2.96 0.94437-3.51 1.37-2.2934 1.772-8.1139 2.1218-9.41 0.57-1.13-1.3607-1.76-1.1921-5.44 1.4543-2.29 1.65-8.21 5.88-13.16 9.4-4.95 3.5224-11.7 8.44-15 10.92-38.01 28.59-43.922 32.05-47.93 28.05z"/><path fill="#b9af7e" d="m91.244 498.75c0.23-0.69 1.81-1.39 3.52-1.56 2.47-0.24491 3.2144-0.86245 3.6313-3 1.5801-8.1021 2.754-19.22 2.9202-27.65 0.10345-5.25 0.53-9.5416 0.94-9.5431 0.4125-0.00 0.75 0.45 0.75 1s1.1725 1 2.61 1c3.3733 0 12.21 2.263 25.67 6.58 6.38 2.04 11.73 3.2124 13.11 2.87 2.29-0.5736 4.98 1.13 5.8301 3.69 0.60143 1.8043 14.37 3.65 36.291 4.8613 11 0.61 24.42 1.4316 29.82 1.83 9.46 0.7 14.47 0.47154 41.681-1.87 14.24-1.2228 37.12-4.92 49.86-8.05 4.7533-1.17 9.5036-2.222 10.56-2.34 1.05-0.12 2.28-1.19 2.72-2.39 0.86-2.3123 3.76-2.884 5.55-1.09 1.2812 1.2812 38.922-8.12 42.871-10.71 1.6605-1.09 3.5135-1.4 5.8034-0.97 3.8938 0.73047 3.62-0.67147 5.7424 28.994 1.55 21.6 4.27 19.6-26.61 19.6h-24.13l-1.37-13.75c-0.75252-7.5625-1.2515-14.571-1.11-15.574 0.21-1.46-0.31-1.76-2.57-1.5l-2.82 0.32 0.34336 8c0.19 4.4 0.68214 9.853 1.1 12.12 0.41406 2.2648 0.55 5.53 0.29313 7.25l-0.46 3.13h-90.01-90.01l0.58185-2.75c0.32001-1.5125 1.4513-6.6625 2.5139-11.444 1.06-4.7819 1.682-8.9444 1.38-9.25-0.86293-0.86293-4.4012-0.65409-3.86 0.23 0.27 0.43075 0.09 2.7932-0.38177 5.25-0.48 2.46-1.1533 7.5043-1.5046 11.22l-0.64 6.75h-25.504c-19.96 0-25.414-0.27195-25.09-1.25zm123.26-59.43c-21.7-1.8842-53.934-7.3413-61-10.33-3.49-1.4743-28.06-8.7401-37.25-11.01-5.57-1.38-5.85-5.5834-1-15.03 8.31-16.202 18.01-22.294 39.09-24.54 27.58-2.9342 26.493-2.91 28.941-0.66 15 13.79 59.08 21.541 80.84 14.213 14.374-4.8421 28.244-17.93 23.33-22.01-4.34-3.61 7.41-21.96 14.07-21.96 7.77 0 6.7623 7.8903-2.143 16.8-5.6932 5.6932-5.8808 5.42 5.39 7.9625 5.3625 1.2119 16.63 3.77 25.03 5.68 22.68 5.15 36.21 14.5 36.21 25.02 0 0.85 0.51 1.54 1.1224 1.54 2.91 0-1.9029 3.17-7.00 4.6119-3.09 0.88-12.963 4.51-21.94 8.08-8.98 3.57-18.88 6.8548-22 7.31-3.1242 0.45312-14.01 2.8707-24.18 5.3724-23.534 5.79-32.721 7.2914-52.41 8.59-15.671 1.03-17.153 1.05-25.1 0.36257zm-38-74.413c-2.2-1.6723-9.4-6.6838-16-11.14-27.8-18.76-36.52-28.9-43.99-51.15-3.52-10.49-2.94-28.62 0.92-28.62 1.2421 0 4.5928 8.3526 8.02 20 7.32 24.843 13.25 32.59 38.16 49.8 17.483 12.08 24.22 18.792 22.352 22.28-1.4746 2.76-4.85 2.34-9.4612-1.17zm134.7-12.11c-0.66-0.66-1.2-1.94-1.2-2.84 0-1.87 15.702-28.67 19.901-33.962 5.07-6.3933 4.6214-4.5946 8.5714-34.5 0.8-6.05 1.9607-15.95 2.5813-22 0.62062-6.05 1.99-13.59 3.04-16.754 1.05-3.1647 1.91-8.4 1.91-11.633 0-4.81 0.33-5.9648 1.79-6.35 2.79-0.73 5.97 0.88 6.7625 3.42 0.4 1.2731 1.75 4.5648 2.9914 7.3148 2.43 5.36 4.9406 18.71 4.63 24.584-0.14 2.6009 0.63427 4.7236 2.8203 7.7413 3.31 4.57 3.85 7.18 1.48 7.18-2.7408 0-6.1416-2.9524-10.41-9.04-2.3-3.28-4.79-5.96-5.53-5.96-2.1109 0-3.6946 19.341-2.58 31.5 0.44 4.78-0.81427 21.01-2.47 32-0.17 1.1-0.34 2.72-0.38446 3.5903-0.08 1.49-8.91 4.45-11.583 3.883-2.54-0.53295-3.5824 0.55-7.8934 8.16-2.5336 4.472-4.61 8.4613-4.61 8.87 0 3.92-7.1711 7.4329-9.8 4.804zm-89.6-37.343c-8.7324-2.19-12.02-4.5543-19.58-14.102-2.56-3.23-7.84-36.07-6.4012-39.813 0.93464-2.44 59.85-2.3527 62.333 0.09 1.5539 1.53-0.34 34-2.3309 40-3.81 11.47-18.931 17.612-34.02 13.83zm-130.03-91.03c-2.56-2.56-0.35395-9.2145 3.9923-12.06 1.61-1.05 2.4541-2.8608 2.92-6.22 0.46-3.33 2.5532-7.8337 7.07-15.191 6.1938-10.1 12.86-22.89 12.244-23.5-0.16394-0.16394-3.39 1.02-7.16 2.63-11.32 4.83-17.63 4.66-17.63-0.47 0-2.13 9.08-10.242 18.6-16.62 1.2314-0.83 8.4629-6.19 16.07-11.92 22.98-17.31 24.482-18.333 29.75-20.34 10.5-3.99 14.37-9.19 4.9-6.5705-7.4309 2.05-12.03-0.49-10.674-5.89 0.73-2.8927 11.12-8.2739 19.9-10.3 2.73-0.6303 6.54-1.79 8.4625-2.5749 1.93-0.79 9.35-3.01 16.5-4.9448 7.15-1.9338 14.19-4.3811 15.64-5.44 6.8502-5 31.33-4.7404 41.92 0.44 3 1.47 11.68 5.11 19.3 8.1 16.813 6.6 22.674 10.05 37.973 22.394 6.5034 5.25 13.75 10.89 16.1 12.54 15.02 10.552 17.854 14.241 15.131 19.7-0.92334 1.8509-1.27 4.09-0.87 5.68 0.91 3.64 15.394 32.122 16.34 32.122 0.88385 0 3.9831 7.3521 3.9831 9.45 0 2.82-3.02 4.64-6.5713 3.9718-2.95-0.55333-3.5221-0.31-4.544 1.9332-0.91 2-2.1546 2.714-5.61 3.2317-2.4405 0.37-4.664 1.26-4.9412 1.98-1.06 2.7547-5.8546 2.563-14.41-0.58-13.75-5.04-18.51-9.1643-16.00-13.85 0.88-1.64 0.64203-2.03-1.5331-2.58-2.6626-0.67-19.52-8.652-27.391-12.974-9.17-5.03-18.27-8.1033-22.99-7.76-9.95 0.73-10.374 0.6306-16.71-3.9004-3.41-2.44-6.2203-4.97-6.25-5.6216-0.10299-2.28-2.2144-2.51-4.38-0.4804-7.353 6.89-15.46 3.46-11.341-4.8 0.96-1.92 1.09-2.8036 0.35-2.37-0.65 0.38234-7.5617 4.902-15.36 10.04-7.8 5.1417-15.673 9.8517-17.5 10.47-1.83 0.62-3.7723 1.451-4.3223 1.86-2.2537 1.67-7.08 2-8.97 0.62-1.7233-1.2601-2.3618-1.1-5.9805 1.5019-2.23 1.6019-8.1013 5.7946-13.05 9.32-4.95 3.5224-11.7 8.44-15 10.92-38.01 28.59-43.922 32.05-47.93 28.05z"/><path fill="#6a758f" d="m91.244 498.75c0.23-0.69 1.81-1.39 3.52-1.56 2.47-0.24491 3.2144-0.86245 3.6313-3 1.5801-8.1021 2.754-19.22 2.9202-27.65 0.10345-5.25 0.53-9.5416 0.94-9.5431 0.4125-0.00 0.75 0.45 0.75 1s1.1725 1 2.61 1c3.3733 0 12.21 2.263 25.67 6.58 6.38 2.04 11.73 3.2124 13.11 2.87 2.29-0.5736 4.98 1.13 5.8301 3.69 0.60143 1.8043 14.37 3.65 36.291 4.8613 11 0.61 24.42 1.4316 29.82 1.83 9.46 0.7 14.47 0.47154 41.681-1.87 14.24-1.2228 37.12-4.92 49.86-8.05 4.7533-1.17 9.5036-2.222 10.56-2.34 1.05-0.12 2.28-1.19 2.72-2.39 0.86-2.3123 3.76-2.884 5.55-1.09 1.2812 1.2812 38.922-8.12 42.871-10.71 1.6605-1.09 3.5135-1.4 5.8034-0.97 3.8938 0.73047 3.62-0.67147 5.7424 28.994 1.55 21.6 4.27 19.6-26.61 19.6h-24.13l-1.37-13.75c-0.75252-7.5625-1.2515-14.571-1.11-15.574 0.21-1.46-0.31-1.76-2.57-1.5l-2.82 0.32 0.34336 8c0.19 4.4 0.68214 9.853 1.1 12.12 0.41406 2.2648 0.55 5.53 0.29313 7.25l-0.46 3.13h-90.01-90.01l0.58185-2.75c0.32001-1.5125 1.4513-6.6625 2.5139-11.444 1.06-4.7819 1.682-8.9444 1.38-9.25-0.86293-0.86293-4.4012-0.65409-3.86 0.23 0.27 0.43075 0.09 2.7932-0.38177 5.25-0.48 2.46-1.1533 7.5043-1.5046 11.22l-0.64 6.75h-25.504c-19.96 0-25.414-0.27195-25.09-1.25zm123.26-59.43c-21.7-1.8842-53.934-7.3413-61-10.33-3.49-1.4743-28.06-8.7401-37.25-11.01-5.57-1.38-5.85-5.5834-1-15.03 8.31-16.202 18.01-22.294 39.09-24.54 27.58-2.9342 26.493-2.91 28.941-0.66 10.94 10.05 47.96 19.55 66.951 17.164 18.26-2.3 37.77-13.59 37.77-21.86 0-2.7024 5.1647-3.13 13.38-1.11 4.47 1.1005 15.55 3.61 24.624 5.57 25.611 5.54 40 14.87 40 25.94 0 0.85 0.51 1.54 1.1224 1.54 2.91 0-1.9029 3.17-7.00 4.6119-3.09 0.88-12.963 4.51-21.94 8.08-8.98 3.57-18.88 6.8548-22 7.31-3.1242 0.45312-14.01 2.8707-24.18 5.3724-23.534 5.79-32.721 7.2914-52.41 8.59-15.671 1.03-17.153 1.05-25.1 0.36257zm7.1007-123.88c-8.72-2.1608-12.01-4.53-19.58-14.09-2.5544-3.23-7.84-36.07-6.4019-39.811 0.91291-2.38 59.834-2.3043 62.32 0.08 1.5217 1.4609-0.38 34.17-2.3229 40.03-3.79 11.402-18.91 17.532-34.02 13.79z"/><path fill="#2d1815" d="m222.65 315.39c-14.81-2.8006-22.492-12.96-24.71-32.643-0.6336-5.6333-1.51-12.181-1.9409-14.55-1.62-8.84 1.00-9.61 27.493-8.06 7.15 0.42 17.84 0.78405 23.75 0.8132l10.75 0.05 0.18 3.75c0.1 2.06 0.11047 4.65 0.03 5.75-0.08 1.1-0.36 6.63-0.61442 12.284-1.2103 26.84-12.03 36.94-34.94 32.602z"/></g><g><path transform="translate(0 -552.36)" d="m92.3 1033.7c2.43-76.73 23.02-111.04 65.443-109.04 8.38 0.4 12.26 0.24 12.26-0.49 0-1.05 1.76-0.89 11.5 1.04l4 0.7909-0.18-7.05-0.18-7.05-4.19-1.78-4.19-1.78 3.1134 2.91c1.7124 1.6 3.1134 3.8528 3.1134 5.01 0 2.4621-1.25 2.711-3 0.6-0.68469-0.83-2.43-1.5118-3.8724-1.53-1.45-0.01-5.8901-1.76-9.88-3.8749s-7.25-3.6503-7.25-3.41c0 0.24235 0.47 1.3111 1.04 2.3749 0.86129 1.61 0.7029 1.9343-0.94288 1.9343-2.09 0-8.6001-7.73-17.52-20.78-6-8.7804-6.2647-8.6725-2.95 1.19 4.2124 12.53-0.97 12.15-7.31-0.54087-12.11-24.221-14.35-29.493-16.211-38.19-5.84-27.19-9.4641-67.83-6.47-72.49 3.68-5.7206 1.2649-6.35-6.14-1.6-14.29 9.1746-19.83 11.124-22.49 7.92-2.06-2.481-0.31-6.16 6.3243-13.27 5.85-6.27 6.2236-6.95 5.28-9.5324-1.08-2.95 6.2316-18.642 15.47-33.2 4.872-7.68 5.54-7.7035-11.17 0.46-19.944 9.73-25.911 10.34-25.911 2.67 0-3.88 4.23-8.2945 16.724-17.493 7.01-5.1614 7.1801-5.3829 5.7234-7.61-3.99-6.09 11.29-16.504 51.3-34.98 8.6807-4.01 9.1-4.34 6.8117-5.38-7.59-3.46-3.71-10.52 7.8138-14.202 2.13-0.68083 5.05-2.4804 6.5-4 3-3.1443 9.46-5.8144 23.132-9.5624 5.23-1.432 10.07-2.7823 10.773-3.00 0.99449-0.31037 1.01-0.81031 0.09-2.29-3.9112-6.2629 1.1027-7.38 31.14-6.93 35.09 0.53 56.72 4.4504 36 6.5315l-7.39 0.74199 14.45 5.43c13.23 4.97 44.673 19.864 49.45 23.42 2.7829 2.07 1.2502 3.11-2.61 1.7634-5.101-1.78-4.421-1.13 8.64 8.28 20.521 14.78 26.37 22.161 20.473 25.844-3.67 2.29-1.8404 6.94 12.5 31.814 11.42 19.82 13.04 24.28 9.9331 27.382-2.41 2.41-3.7913 1.9736-10.95-3.443-6.7904-5.14-7.88-5.4048-8.7324-2.1319-0.35 1.3344 1.81 4.4122 7.38 10.54 10.393 11.43 10.433 14.03 0.11 7.08-6.4706-4.36-6.55-3.52-0.76 8.38 5.01 10.3 5.91 13.244 10.583 34.81 3.1445 14.51 3.213 15.271 1.59 17.75-2.95 4.5-7.14 3-11.811-4.2301l-3.03-4.68 0.46009 11.5c0.55382 13.843-0.80177 35.62-2.8125 45.18-3.6327 17.27-13.04 22.74-16.864 9.8l-1.21-4.09-4.8 6.11c-2.64 3.36-6.1 7.07-7.69 8.2416-1.59 1.1743-3.1545 2.98-3.4805 4.00-0.33 1.03-2.78 4.7213-5.4535 8.21-5.4132 7.06-5.3842 7.56 0.44272 7.5708 15 0.03 41.53 8.3331 49.42 15.462 15.95 14.4 27.17 55.93 27.17 100.56v14.962h-5.36-5.36l-0.69-10.25c-3.88-57.97-12.33-89.29-26.96-99.89-5.04-3.65-15.15-6.77-38.64-11.95-10.18-2.2411-19.454-4.3018-20.62-4.58-1.67-0.4-2.35 0.14132-3.18 2.5323-8.9942 25.801-69.82 29.642-105.72 6.68l-5.77-3.69-12.61 1.14c-25.22 2.28-31.64 4.4433-39.86 13.434-12.49 13.67-18.66 35.41-22.29 78.59-0.62416 7.43-1.67 16.65-2.32 20.5l-1.1834 7-4.3816 0.3148-4.3816 0.3148 0.6-18.82zm167.47-95.78c2.7124-0.72 10.12-3.6504 16.46-6.522l11.53-5.2211-1.3749-4.57c-0.76-2.51-1.38-6-1.38-7.75v-3.19l-5.44 1.84c-9.4645 3.2-12.03-0.78-3.8101-5.8918 28.03-17.43 31.461-19.813 37.5-26.07 15.6-16.16 25.73-58.03 23.142-95.67l-0.89-12.98-6.92-3.78c-3.81-2.08-9.21-5.5007-12-7.6045s-7.33-5.101-10.08-6.6604c-5.9206-3.36-19.29-12.52-25.18-17.26-3.86-3.11-20.32-10.89-20.32-9.61 0 0.31 1.8129 2.6227 4.03 5.14s3.6024 4.8402 3.08 5.1622c-0.521 0.32199-1.1 2.1111-1.28 3.98-0.89 9.07-6.881 6.601-18.05-7.43-17.36-21.8-16.36-21.32-26.303-12.701-19.65 17.01-33.71 26.553-39.41 26.74-2.2747 0.07-5.6528 1.461-9.31 3.8222-16.35 10.56-15 5 2.74-11.304 7.98-7.3308 14.5-13.5 14.5-13.71 0-0.21-3.2625 1.944-7.25 4.783-10.47 7.4534-46 30.861-54.5 35.903l-7.25 4.3011 0.02 9.09c0.05 21.184 9.27 58.402 19.72 79.572 11.45 23.192 36.09 40.363 69.263 48.254 14.16 3.37 15.373 3.84 15.823 6.1212 0.87251 4.433-18.55 4.4506-33.11 0.03-1.4849-0.45076-1.7601 0.02-1.63 2.79 0.09 1.831-0.17112 5.19-0.57218 7.4603l-0.73 4.1313 9.36 3.08c23.35 7.6911 44.464 9.72 59.624 5.72zm-39.6-62.04c-20.65-4.68-33.13-23.833-31.95-49.03 0.95008-20.311 3.4-21.772 37.284-22.29 31.592-0.48 45.44 1.77 41.15 6.68-1.07 1.23-1.22 2.9035-0.6 7.11 6.1106 41.65-12.58 65.08-45.881 57.53zm22.33-11.9c10.132-4.78 12.441-9.7308 13.573-29.123 1.29-22.03 1.4-20.83-1.8232-20.164-1.5125 0.31276-14.83 0.1042-29.59-0.46346-14.76-0.57-27.03-0.83439-27.28-0.59273-0.68348 0.68348 2.5224 26.8 3.7718 30.721 5.9539 18.71 24.56 27.54 41.341 19.623zm-92.75-75.703c-4.363-2.5412-0.21-9.31 4.25-6.92 2.58 1.3803 2.62 5.6 0.07 6.9648-2.302 1.232-2.1201 1.2339-4.32-0.04zm134.96-5.54c-1.3625-1.3625-0.70491-5.32 1.04-6.23 3.05-1.6 6.4332 0.41 6.07 3.59-0.32 2.75-5.1842 4.56-7.1031 2.64zm16.27 132.37c1.76-5.75 2.03-8.6249 0.88028-9.3347-0.59-0.36354-0.51-1.14 0.21098-2.00 1.6839-2.03 0.02-1.7132-4.52 0.86-3.98 2.2531-6.2548 12.801-3.06 14.152 3.4649 1.4632 5.22 0.47157 6.4826-3.67zm21.283-26.56c1.103-0.92 1.7542-0.97105 2.24-0.19093 0.40051 0.65 1.8334-0.72 3.4847-3.3217 4.49-7.07 9.14-9.4135 12.342-6.21 1.9043 1.9043 4.1522-14.08 6.5146-46.31 0.74-10.04-0.15-13.47-1.28-4.96-3.98 29.982-11.09 47.354-25.01 61.101-7.25 7.17-10.55 11.99-10.55 15.39 0 0.98492 2.41-1.81 5.3548-6.21 2.95-4.4 6.06-8.58 6.911-9.29zm-159.26 11.76c-1.38-1.1034-3.3418-2.49-4.3707-3.08-3.27-1.8718-0.75336 1.08 2.73 3.21 4.06 2.48 4.8122 2.42 1.6409-0.13zm-26.91-25.844c-2.44-3.4531-8.3339-15.38-10.64-21.52-2.842-7.57-2.87-3.77-0.05 6.83 3.7613 14.132 6.8927 19.86 10.07 18.412 2.44-1.1112 2.4442-1.1437 0.62064-3.73zm224.87-59.2c-4.5822-21.03-5.97-26.24-8.3535-31.454-3.89-8.4916-4.4248-7.07-4.3527 11.553 0.06 15.814 0.18305 16.903 1.7336 15.5 3.3415-3.02 4.9438-1.83 8.7 6.51 4.51 10.01 4.85 9.7 2.2737-2.11zm-253.02-48.63c6.8415-4.84 19.67-14.16 28.5-20.721 20.73-15.4 35.54-25.57 37.23-25.57 2.15 0 1.55 2.851-1.4139 6.77l-2.75 3.64 5.5909-4.2032c3.08-2.3118 6.4926-4.2032 7.5946-4.2032 1.1021 0 8.94-4.66 17.41-10.35 18.45-12.392 19.431-12.94 21.943-12.14 4.09 1.3 2.49 5.8908-4.79 13.67-7.49 8.01-7.08 7.8006 11.36-5.78 16.951-12.484 22.00-14.16 12.541-4.1537-5.2808 5.5837-5.29 5.6045-2.9728 6.8 1.28 0.66 4.7123 2.98 7.631 5.1502 4.28 3.1849 5.59 3.72 6.7446 2.76 3.5512-2.95 18.87 1.2546 33.45 9.18 7.8721 4.28 17.171 8.6206 27.33 12.764 11.82 4.8227 11.36 6.7048-1.2 4.8906-5.6416-0.82-4.691 0.01 7 6.08 12.1 6.28 15.84 7.09 19.47 4.24 1.471-1.16 3.9736-2.1038 5.5612-2.1038 2.12 0 3.1936-0.67386 4.04-2.524 1.6422-3.6042 5.03-4.1216 9.38-1.4335l3.6306 2.2438-1.5223-2.8932c-0.84-1.5913-5.15-9.3919-9.583-17.34-11.01-19.73-11.86-22.59-9.9346-33.49 0.33384-1.8902-3.11-4.7711-36.4-30.49-11.06-8.5417-17.57-12.11-34.67-18.984-8.31-3.3408-17.462-7.2838-20.35-8.7622-5.6107-2.88-30.7-3.8404-31.61-1.2148-0.59 1.7-8.35 4.603-22.43 8.4-34.463 9.2934-48.87 16.48-33.04 16.48 14.473 0 14.713 4.8136 0.57244 11.514-8.87 4.2028-69.22 47.853-67.932 49.14 0.35 0.35 16.95-5.7027 24.9-9.07 4.59-1.95 4.7821-1.95 4.7821-0.03 0 2.18-12.242 25.27-18.753 35.372-2.99 4.633-5.84 9.5017-6.34 10.82l-0.91077 2.4 3.12-2.22c4.4219-3.15 2.85-0.50207-5.5222 9.3-9.93 11.621-9.42 11.46 12.35-3.9242zm228.06-5.29c0-0.55-0.45-1-1-1s-1 0.45-1 1 0.45 1 1 1 1-0.45 1-1zm-196.59 287.74c0.28-1.79 0.78-6.4 1.11-10.25 1.2-13.924 8.773-50.12 11.984-57.25 3.422-7.6 5.9607-1.561 4.46 10.61-2.7915 22.62-5.45 39.04-8.63 53.4l-1.5 6.75h-3.97c-3.9104 0-3.96-0.05-3.4605-3.25zm182.59 2.5c0-0.43-0.43042-4.3645-0.96-8.75-0.53-4.39-1.44-16.07-2.03-25.974-0.59-9.9-1.5348-22.682-2.1024-28.41-1.9047-19.203 5.54-17.62 8.9506 1.91 1.36 7.76 5.7645 43.301 6.73 54.25l0.68239 7.75h-5.64c-3.1009 0-5.64-0.35-5.64-0.78z"/></g></svg>
